<?xml version="1.0" encoding="UTF-8" standalone="no"?>
<!-- Created with Inkscape (http://www.inkscape.org/) -->

<svg
   version="1.1"
   id="svg2"
   width="749.52002"
   height="67.866669"
   viewBox="0 0 749.52002 67.866669"
   sodipodi:docname="logo_white.eps"
   xmlns:inkscape="http://www.inkscape.org/namespaces/inkscape"
   xmlns:sodipodi="http://sodipodi.sourceforge.net/DTD/sodipodi-0.dtd"
   xmlns="http://www.w3.org/2000/svg"
   xmlns:svg="http://www.w3.org/2000/svg">
  <defs
     id="defs6" />
  <sodipodi:namedview
     id="namedview4"
     pagecolor="#ffffff"
     bordercolor="#000000"
     borderopacity="0.25"
     inkscape:showpageshadow="2"
     inkscape:pageopacity="0.0"
     inkscape:pagecheckerboard="0"
     inkscape:deskcolor="#d1d1d1" />
  <g
     id="g8"
     inkscape:groupmode="layer"
     inkscape:label="ink_ext_XXXXXX"
     transform="matrix(1.3333333,0,0,-1.3333333,0,67.866667)">
    <g
       id="g10"
       transform="scale(0.1)">
      <path
         d="m 3702.18,340.563 h 58.32 c 47.52,0 75.61,-12.239 99.36,-43.922 19.45,-25.918 28.81,-59.032 28.81,-102.957 0,-50.403 -12.25,-86.407 -40.33,-115.1957 -25.92,-26.6524 -50.39,-35.2852 -95.04,-35.2852 h -51.12 z m 56.16,-329.7622 c 56.89,0 96.48,10.8008 130.33,34.5625 46.07,33.125 71.99,88.5547 71.99,154.8007 0,50.395 -15.12,90.719 -46.07,123.84 -36,38.16 -68.4,48.238 -147.6,48.238 H 3584.1 v -15.84 l 54,-21.597 V 48.2422 l -54,-20.8789 V 10.8008 h 174.24"
         style="fill:#ffffff;fill-opacity:1;fill-rule:nonzero;stroke:none"
         id="path12" />
      <path
         d="m 3991.85,10.8008 v 16.5625 l 54.01,20.8789 V 334.805 l -54.01,21.597 v 15.84 h 172.09 v -15.84 l -54,-21.597 V 48.2422 l 54,-20.8789 V 10.8008 h -172.09"
         style="fill:#ffffff;fill-opacity:1;fill-rule:nonzero;stroke:none"
         id="path14" />
      <path
         d="m 4459.61,462.246 h 49.68 c 41.04,0 61.19,-8.641 79.92,-31.683 15.12,-20.157 22.33,-46.079 22.33,-75.602 0,-30.238 -7.21,-55.438 -22.33,-74.879 -20.15,-25.922 -47.51,-36.715 -96.48,-36.715 h -33.12 z m 74.88,-451.4452 v 18 l -74.88,25.2031 V 215.285 h 50.41 c 106.56,0 173.51,54.727 173.51,141.84 0,41.039 -13.67,73.438 -41.76,97.918 -29.53,25.918 -65.52,36 -128.88,36 h -182.17 v -18 l 60.49,-25.199 V 54.0039 l -60.49,-25.2031 v -18 h 203.77"
         style="fill:#ffffff;fill-opacity:1;fill-rule:nonzero;stroke:none"
         id="path16" />
      <path
         d="m 4730.89,10.8008 v 16.5625 l 54.01,20.8789 V 334.805 l -54.01,21.597 v 15.84 h 172.09 v -15.84 l -54,-21.597 V 48.2422 l 54,-20.8789 V 10.8008 h -172.09"
         style="fill:#ffffff;fill-opacity:1;fill-rule:nonzero;stroke:none"
         id="path18" />
      <path
         d="m 4965.19,21.6016 v 85.6754 h 22.31 l 28.08,-64.7965 c 22.33,-5.0391 33.13,-6.4844 48.24,-6.4844 47.52,0 73.44,20.168 73.44,57.6094 0,25.9175 -9.35,37.4415 -46.8,61.1915 l -56.17,34.57 c -50.39,31.676 -65.5,52.559 -65.5,92.156 0,59.762 45.35,98.637 117.36,98.637 25.19,0 61.19,-4.316 95.76,-11.515 l 8.63,-2.161 v -83.519 h -22.32 l -27.36,61.918 c -19.44,2.156 -29.52,2.883 -41.76,2.883 -48.24,0 -73.44,-17.282 -73.44,-49.684 0,-21.598 7.21,-30.238 44.65,-53.277 l 59.74,-38.164 c 61.22,-37.43 74.89,-56.883 74.89,-100.801 0,-61.9142 -50.39,-102.23453 -128.17,-102.23453 -23.75,0 -61.19,5.76172 -104.39,16.55083 l -7.19,1.4453"
         style="fill:#ffffff;fill-opacity:1;fill-rule:nonzero;stroke:none"
         id="path20" />
      <path
         d="m 5412.59,308.164 6.47,-18.719 9.37,-25.199 30.24,-84.957 h -97.93 z M 5465.15,154.082 5503.3,48.2422 5458.67,27.3633 V 10.8008 h 162.71 v 16.5625 l -48.24,20.8789 -123.83,327.6018 h -41.76 L 5270.02,48.2422 5221.79,27.3633 V 10.8008 h 133.19 v 16.5625 l -43.91,20.8789 39.59,105.8398 h 114.49"
         style="fill:#ffffff;fill-opacity:1;fill-rule:nonzero;stroke:none"
         id="path22" />
      <path
         d="m 0,473.043 v 18 h 189.359 v -18 l -60.48,-25.199 v -288 c 0,-86.3948 37.437,-124.5588 120.961,-124.5588 87.84,0 126.723,37.4414 126.723,120.9568 v 291.602 l -60.485,25.199 v 18 h 168.481 v -18 l -61.2,-25.199 V 172.082 C 423.359,98.6445 404.641,57.5977 357.117,28.0742 324.723,7.92188 291.602,0 237.598,0 115.918,0 60.4766,48.2422 60.4766,154.082 V 447.844 L 0,473.043"
         style="fill:#ffffff;fill-opacity:1;fill-rule:nonzero;stroke:none"
         id="path24" />
      <path
         d="m 481.16,10.8008 v 16.5625 l 54.008,20.8789 V 334.805 l -54.008,21.597 v 15.84 h 108.723 l 199.441,-258.48 v 221.043 l -53.996,21.597 v 15.84 h 143.281 v -15.84 L 825.328,334.805 V 7.19922 H 795.805 L 571.16,302.402 V 48.2422 L 624.441,27.3633 V 10.8008 H 481.16"
         style="fill:#ffffff;fill-opacity:1;fill-rule:nonzero;stroke:none"
         id="path26" />
      <path
         d="m 925.438,10.8008 v 16.5625 l 54,20.8789 V 334.805 l -54,21.597 v 15.84 h 172.082 v -15.84 l -54,-21.597 V 48.2422 l 54,-20.8789 V 10.8008 H 925.438"
         style="fill:#ffffff;fill-opacity:1;fill-rule:nonzero;stroke:none"
         id="path28" />
      <path
         d="m 1278.95,7.19922 -126.72,327.60578 -44.64,21.597 v 15.84 h 157.68 v -15.84 l -44.64,-21.597 75.6,-213.125 c 3.6,-10.078 6.48,-18.719 12.96,-39.598 l 100.08,252.723 -43.92,21.597 v 15.84 h 128.88 v -15.84 L 1448.15,334.805 1313.51,7.19922 h -34.56"
         style="fill:#ffffff;fill-opacity:1;fill-rule:nonzero;stroke:none"
         id="path30" />
      <path
         d="M 1624.54,182.879 V 39.6016 h 120.24 l 33.84,53.2812 h 21.6 l -8.64,-82.082 h -285.12 v 16.5625 l 54,20.8789 V 334.805 l -54,21.597 v 15.84 h 282.97 V 290.16 h -22.33 l -25.92,57.606 H 1624.54 V 208.074 h 95.04 l 19.44,46.086 h 21.6 V 136.086 h -21.6 l -19.44,46.793 h -95.04"
         style="fill:#ffffff;fill-opacity:1;fill-rule:nonzero;stroke:none"
         id="path32" />
      <path
         d="m 1967.43,347.766 h 41.04 c 43.19,0 64.8,-22.321 64.8,-67.684 0,-45.363 -24.48,-72.008 -66.24,-72.008 h -39.6 z M 1988.3,182.879 2115.02,10.8008 h 90.73 V 27.3633 L 2163.27,48.2422 2056.7,190.801 c 57.61,19.441 84.96,50.398 84.96,95.762 0,28.082 -12.23,51.839 -33.83,66.964 -20.88,15.118 -38.88,18.715 -87.12,18.715 h -171.36 v -15.84 l 53.99,-21.597 V 48.2422 L 1849.35,27.3633 V 10.8008 h 172.08 v 16.5625 l -54,20.8789 V 182.879 h 20.87"
         style="fill:#ffffff;fill-opacity:1;fill-rule:nonzero;stroke:none"
         id="path34" />
      <path
         d="m 2241.24,21.6016 v 85.6754 h 22.32 l 28.08,-64.7965 c 22.32,-5.0391 33.12,-6.4844 48.24,-6.4844 47.52,0 73.44,20.168 73.44,57.6094 0,25.9175 -9.36,37.4415 -46.8,61.1915 l -56.16,34.57 c -50.4,31.676 -65.52,52.559 -65.52,92.156 0,59.762 45.37,98.637 117.36,98.637 25.2,0 61.2,-4.316 95.76,-11.515 l 8.64,-2.161 v -83.519 h -22.31 l -27.36,61.918 c -19.45,2.156 -29.53,2.883 -41.76,2.883 -48.24,0 -73.45,-17.282 -73.45,-49.684 0,-21.598 7.2,-30.238 44.64,-53.277 l 59.77,-38.164 c 61.18,-37.43 74.88,-56.883 74.88,-100.801 0,-61.9142 -50.41,-102.23453 -128.17,-102.23453 -23.76,0 -61.2,5.76172 -104.4,16.55083 l -7.2,1.4453"
         style="fill:#ffffff;fill-opacity:1;fill-rule:nonzero;stroke:none"
         id="path36" />
      <path
         d="m 2527.42,10.8008 v 16.5625 l 54,20.8789 V 334.805 l -54,21.597 v 15.84 h 172.08 v -15.84 l -54,-21.597 V 48.2422 l 54,-20.8789 V 10.8008 h -172.08"
         style="fill:#ffffff;fill-opacity:1;fill-rule:nonzero;stroke:none"
         id="path38" />
      <path
         d="M 2863,48.2422 V 344.164 h -78.5 l -28.12,-61.199 h -22.33 v 89.277 h 321.9 v -89.277 h -21.6 l -24.47,61.199 h -82.79 V 48.2422 l 57.59,-20.8789 V 10.8008 H 2805.39 V 27.3633 L 2863,48.2422"
         style="fill:#ffffff;fill-opacity:1;fill-rule:nonzero;stroke:none"
         id="path40" />
      <path
         d="m 3222.63,308.164 6.47,-18.719 9.37,-25.199 30.24,-84.957 h -97.93 z m 52.56,-154.082 38.17,-105.8398 -44.65,-20.8789 V 10.8008 h 162.71 v 16.5625 l -48.24,20.8789 -123.83,327.6018 h -41.76 L 3080.07,48.2422 3031.83,27.3633 V 10.8008 h 133.21 v 16.5625 l -43.93,20.8789 39.59,105.8398 z m -79.92,354.961 h -98.65 l 138.24,-104.398 h 36.02 l -75.61,104.398"
         style="fill:#ffffff;fill-opacity:1;fill-rule:nonzero;stroke:none"
         id="path42" />
    </g>
  </g>
</svg>
